<svg width="320" height="320" viewBox="0 0 320 320" fill="none" xmlns="http://www.w3.org/2000/svg">
  <rect width="320" height="320" rx="36" fill="hsl(0 0% 100%)"/>
  <rect x="24" y="24" width="272" height="272" rx="26" fill="hsl(0 0% 97%)"/>
  <rect x="40" y="40" width="72" height="72" rx="10" fill="hsl(0 0% 8%)"/>
  <rect x="54" y="54" width="44" height="44" rx="6" fill="hsl(0 0% 100%)"/>
  <rect x="65" y="65" width="22" height="22" rx="4" fill="hsl(0 0% 8%)"/>
  <rect x="208" y="40" width="72" height="72" rx="10" fill="hsl(0 0% 8%)"/>
  <rect x="222" y="54" width="44" height="44" rx="6" fill="hsl(0 0% 100%)"/>
  <rect x="233" y="65" width="22" height="22" rx="4" fill="hsl(0 0% 8%)"/>
  <rect x="40" y="208" width="72" height="72" rx="10" fill="hsl(0 0% 8%)"/>
  <rect x="54" y="222" width="44" height="44" rx="6" fill="hsl(0 0% 100%)"/>
  <rect x="65" y="233" width="22" height="22" rx="4" fill="hsl(0 0% 8%)"/>
  <g fill="hsl(0 0% 8%)">
    <rect x="136" y="48" width="16" height="16" rx="3"/>
    <rect x="160" y="48" width="16" height="16" rx="3"/>
    <rect x="136" y="72" width="16" height="16" rx="3"/>
    <rect x="160" y="96" width="16" height="16" rx="3"/>
    <rect x="136" y="120" width="16" height="16" rx="3"/>
    <rect x="160" y="120" width="16" height="16" rx="3"/>
    <rect x="184" y="120" width="16" height="16" rx="3"/>
    <rect x="120" y="144" width="16" height="16" rx="3"/>
    <rect x="144" y="144" width="16" height="16" rx="3"/>
    <rect x="168" y="144" width="16" height="16" rx="3"/>
    <rect x="192" y="144" width="16" height="16" rx="3"/>
    <rect x="216" y="144" width="16" height="16" rx="3"/>
    <rect x="120" y="168" width="16" height="16" rx="3"/>
    <rect x="168" y="168" width="16" height="16" rx="3"/>
    <rect x="216" y="168" width="16" height="16" rx="3"/>
    <rect x="136" y="192" width="16" height="16" rx="3"/>
    <rect x="160" y="192" width="16" height="16" rx="3"/>
    <rect x="184" y="192" width="16" height="16" rx="3"/>
    <rect x="208" y="192" width="16" height="16" rx="3"/>
    <rect x="136" y="216" width="16" height="16" rx="3"/>
    <rect x="184" y="216" width="16" height="16" rx="3"/>
    <rect x="232" y="216" width="16" height="16" rx="3"/>
    <rect x="136" y="240" width="16" height="16" rx="3"/>
    <rect x="160" y="240" width="16" height="16" rx="3"/>
    <rect x="208" y="240" width="16" height="16" rx="3"/>
    <rect x="232" y="240" width="16" height="16" rx="3"/>
    <rect x="256" y="144" width="16" height="16" rx="3"/>
    <rect x="256" y="168" width="16" height="16" rx="3"/>
    <rect x="256" y="192" width="16" height="16" rx="3"/>
    <rect x="96" y="144" width="16" height="16" rx="3"/>
    <rect x="96" y="168" width="16" height="16" rx="3"/>
    <rect x="96" y="192" width="16" height="16" rx="3"/>
  </g>
  <rect x="208" y="208" width="72" height="72" rx="18" fill="hsl(25 95% 53%)" fill-opacity="0.14"/>
  <circle cx="244" cy="244" r="18" fill="hsl(25 95% 53%)"/>
  <path d="M255.5 244.1C255.5 250.26 250.49 255.25 244.33 255.25C238.16 255.25 233.17 250.26 233.17 244.1C233.17 237.93 238.16 232.94 244.33 232.94C250.49 232.94 255.5 237.93 255.5 244.1Z" stroke="hsl(0 0% 100%)" stroke-width="6"/>
  <circle cx="256.7" cy="231.5" r="4.8" fill="hsl(0 0% 100%)"/>
</svg>