<svg width="320" height="320" viewBox="0 0 320 320" fill="none" xmlns="http://www.w3.org/2000/svg">
  <rect width="320" height="320" rx="40" fill="hsl(0 0% 100%)"/>
  <rect x="18" y="18" width="284" height="284" rx="32" fill="hsl(0 0% 97%)"/>
  <rect x="40" y="40" width="76" height="76" rx="12" fill="hsl(0 0% 7%)"/>
  <rect x="54" y="54" width="48" height="48" rx="8" fill="hsl(0 0% 100%)"/>
  <rect x="66" y="66" width="24" height="24" rx="4" fill="hsl(0 0% 7%)"/>
  <rect x="204" y="40" width="76" height="76" rx="12" fill="hsl(0 0% 7%)"/>
  <rect x="218" y="54" width="48" height="48" rx="8" fill="hsl(0 0% 100%)"/>
  <rect x="230" y="66" width="24" height="24" rx="4" fill="hsl(0 0% 7%)"/>
  <rect x="40" y="204" width="76" height="76" rx="12" fill="hsl(0 0% 7%)"/>
  <rect x="54" y="218" width="48" height="48" rx="8" fill="hsl(0 0% 100%)"/>
  <rect x="66" y="230" width="24" height="24" rx="4" fill="hsl(0 0% 7%)"/>
  <g fill="hsl(0 0% 7%)">
    <rect x="136" y="44" width="12" height="12" rx="3"/>
    <rect x="152" y="44" width="12" height="12" rx="3"/>
    <rect x="168" y="44" width="12" height="12" rx="3"/>
    <rect x="136" y="60" width="12" height="12" rx="3"/>
    <rect x="184" y="60" width="12" height="12" rx="3"/>
    <rect x="136" y="76" width="12" height="12" rx="3"/>
    <rect x="152" y="76" width="12" height="12" rx="3"/>
    <rect x="184" y="76" width="12" height="12" rx="3"/>
    <rect x="120" y="104" width="12" height="12" rx="3"/>
    <rect x="136" y="104" width="12" height="12" rx="3"/>
    <rect x="168" y="104" width="12" height="12" rx="3"/>
    <rect x="184" y="104" width="12" height="12" rx="3"/>
    <rect x="200" y="104" width="12" height="12" rx="3"/>
    <rect x="120" y="120" width="12" height="12" rx="3"/>
    <rect x="152" y="120" width="12" height="12" rx="3"/>
    <rect x="168" y="120" width="12" height="12" rx="3"/>
    <rect x="216" y="120" width="12" height="12" rx="3"/>
    <rect x="232" y="120" width="12" height="12" rx="3"/>
    <rect x="104" y="136" width="12" height="12" rx="3"/>
    <rect x="120" y="136" width="12" height="12" rx="3"/>
    <rect x="152" y="136" width="12" height="12" rx="3"/>
    <rect x="168" y="136" width="12" height="12" rx="3"/>
    <rect x="184" y="136" width="12" height="12" rx="3"/>
    <rect x="216" y="136" width="12" height="12" rx="3"/>
    <rect x="248" y="136" width="12" height="12" rx="3"/>
    <rect x="104" y="152" width="12" height="12" rx="3"/>
    <rect x="136" y="152" width="12" height="12" rx="3"/>
    <rect x="184" y="152" width="12" height="12" rx="3"/>
    <rect x="216" y="152" width="12" height="12" rx="3"/>
    <rect x="248" y="152" width="12" height="12" rx="3"/>
    <rect x="104" y="168" width="12" height="12" rx="3"/>
    <rect x="120" y="168" width="12" height="12" rx="3"/>
    <rect x="152" y="168" width="12" height="12" rx="3"/>
    <rect x="168" y="168" width="12" height="12" rx="3"/>
    <rect x="200" y="168" width="12" height="12" rx="3"/>
    <rect x="232" y="168" width="12" height="12" rx="3"/>
    <rect x="120" y="184" width="12" height="12" rx="3"/>
    <rect x="136" y="184" width="12" height="12" rx="3"/>
    <rect x="184" y="184" width="12" height="12" rx="3"/>
    <rect x="200" y="184" width="12" height="12" rx="3"/>
    <rect x="216" y="184" width="12" height="12" rx="3"/>
    <rect x="248" y="184" width="12" height="12" rx="3"/>
    <rect x="136" y="200" width="12" height="12" rx="3"/>
    <rect x="152" y="200" width="12" height="12" rx="3"/>
    <rect x="184" y="200" width="12" height="12" rx="3"/>
    <rect x="232" y="200" width="12" height="12" rx="3"/>
    <rect x="248" y="200" width="12" height="12" rx="3"/>
    <rect x="136" y="216" width="12" height="12" rx="3"/>
    <rect x="168" y="216" width="12" height="12" rx="3"/>
    <rect x="184" y="216" width="12" height="12" rx="3"/>
    <rect x="200" y="216" width="12" height="12" rx="3"/>
    <rect x="216" y="216" width="12" height="12" rx="3"/>
    <rect x="248" y="216" width="12" height="12" rx="3"/>
    <rect x="136" y="232" width="12" height="12" rx="3"/>
    <rect x="152" y="232" width="12" height="12" rx="3"/>
    <rect x="184" y="232" width="12" height="12" rx="3"/>
    <rect x="216" y="232" width="12" height="12" rx="3"/>
    <rect x="232" y="232" width="12" height="12" rx="3"/>
    <rect x="248" y="232" width="12" height="12" rx="3"/>
    <rect x="168" y="248" width="12" height="12" rx="3"/>
    <rect x="184" y="248" width="12" height="12" rx="3"/>
    <rect x="216" y="248" width="12" height="12" rx="3"/>
  </g>
  <rect x="206" y="206" width="74" height="74" rx="20" fill="hsl(25 95% 53%)" fill-opacity="0.12"/>
  <circle cx="243" cy="243" r="21" fill="hsl(25 95% 53%)"/>
  <rect x="231" y="231" width="24" height="24" rx="7" stroke="hsl(0 0% 100%)" stroke-width="6"/>
  <circle cx="243" cy="243" r="5.5" fill="hsl(0 0% 100%)"/>
  <circle cx="255.5" cy="230.5" r="4" fill="hsl(0 0% 100%)"/>
</svg>
