<svg width="320" height="320" viewBox="0 0 320 320" fill="none" xmlns="http://www.w3.org/2000/svg">
  <rect width="320" height="320" rx="40" fill="hsl(0 0% 100%)"/>
  <rect x="18" y="18" width="284" height="284" rx="32" fill="hsl(0 0% 97%)"/>
  <rect x="40" y="40" width="76" height="76" rx="12" fill="hsl(0 0% 7%)"/>
  <rect x="54" y="54" width="48" height="48" rx="8" fill="hsl(0 0% 100%)"/>
  <rect x="66" y="66" width="24" height="24" rx="4" fill="hsl(0 0% 7%)"/>
  <rect x="204" y="40" width="76" height="76" rx="12" fill="hsl(0 0% 7%)"/>
  <rect x="218" y="54" width="48" height="48" rx="8" fill="hsl(0 0% 100%)"/>
  <rect x="230" y="66" width="24" height="24" rx="4" fill="hsl(0 0% 7%)"/>
  <rect x="40" y="204" width="76" height="76" rx="12" fill="hsl(0 0% 7%)"/>
  <rect x="54" y="218" width="48" height="48" rx="8" fill="hsl(0 0% 100%)"/>
  <rect x="66" y="230" width="24" height="24" rx="4" fill="hsl(0 0% 7%)"/>
  <g fill="hsl(0 0% 7%)">
    <rect x="136" y="44" width="12" height="12" rx="3"/>
    <rect x="168" y="44" width="12" height="12" rx="3"/>
    <rect x="184" y="44" width="12" height="12" rx="3"/>
    <rect x="136" y="60" width="12" height="12" rx="3"/>
    <rect x="152" y="60" width="12" height="12" rx="3"/>
    <rect x="184" y="60" width="12" height="12" rx="3"/>
    <rect x="120" y="76" width="12" height="12" rx="3"/>
    <rect x="136" y="76" width="12" height="12" rx="3"/>
    <rect x="168" y="76" width="12" height="12" rx="3"/>
    <rect x="200" y="76" width="12" height="12" rx="3"/>
    <rect x="120" y="92" width="12" height="12" rx="3"/>
    <rect x="152" y="92" width="12" height="12" rx="3"/>
    <rect x="184" y="92" width="12" height="12" rx="3"/>
    <rect x="216" y="92" width="12" height="12" rx="3"/>
    <rect x="104" y="108" width="12" height="12" rx="3"/>
    <rect x="120" y="108" width="12" height="12" rx="3"/>
    <rect x="152" y="108" width="12" height="12" rx="3"/>
    <rect x="184" y="108" width="12" height="12" rx="3"/>
    <rect x="216" y="108" width="12" height="12" rx="3"/>
    <rect x="232" y="108" width="12" height="12" rx="3"/>
    <rect x="104" y="124" width="12" height="12" rx="3"/>
    <rect x="136" y="124" width="12" height="12" rx="3"/>
    <rect x="168" y="124" width="12" height="12" rx="3"/>
    <rect x="184" y="124" width="12" height="12" rx="3"/>
    <rect x="216" y="124" width="12" height="12" rx="3"/>
    <rect x="248" y="124" width="12" height="12" rx="3"/>
    <rect x="104" y="140" width="12" height="12" rx="3"/>
    <rect x="120" y="140" width="12" height="12" rx="3"/>
    <rect x="152" y="140" width="12" height="12" rx="3"/>
    <rect x="184" y="140" width="12" height="12" rx="3"/>
    <rect x="200" y="140" width="12" height="12" rx="3"/>
    <rect x="232" y="140" width="12" height="12" rx="3"/>
    <rect x="104" y="156" width="12" height="12" rx="3"/>
    <rect x="136" y="156" width="12" height="12" rx="3"/>
    <rect x="168" y="156" width="12" height="12" rx="3"/>
    <rect x="216" y="156" width="12" height="12" rx="3"/>
    <rect x="248" y="156" width="12" height="12" rx="3"/>
    <rect x="120" y="172" width="12" height="12" rx="3"/>
    <rect x="136" y="172" width="12" height="12" rx="3"/>
    <rect x="168" y="172" width="12" height="12" rx="3"/>
    <rect x="184" y="172" width="12" height="12" rx="3"/>
    <rect x="216" y="172" width="12" height="12" rx="3"/>
    <rect x="232" y="172" width="12" height="12" rx="3"/>
    <rect x="120" y="188" width="12" height="12" rx="3"/>
    <rect x="152" y="188" width="12" height="12" rx="3"/>
    <rect x="184" y="188" width="12" height="12" rx="3"/>
    <rect x="200" y="188" width="12" height="12" rx="3"/>
    <rect x="248" y="188" width="12" height="12" rx="3"/>
    <rect x="136" y="204" width="12" height="12" rx="3"/>
    <rect x="168" y="204" width="12" height="12" rx="3"/>
    <rect x="184" y="204" width="12" height="12" rx="3"/>
    <rect x="216" y="204" width="12" height="12" rx="3"/>
    <rect x="248" y="204" width="12" height="12" rx="3"/>
    <rect x="120" y="220" width="12" height="12" rx="3"/>
    <rect x="136" y="220" width="12" height="12" rx="3"/>
    <rect x="168" y="220" width="12" height="12" rx="3"/>
    <rect x="200" y="220" width="12" height="12" rx="3"/>
    <rect x="232" y="220" width="12" height="12" rx="3"/>
    <rect x="248" y="220" width="12" height="12" rx="3"/>
    <rect x="136" y="236" width="12" height="12" rx="3"/>
    <rect x="152" y="236" width="12" height="12" rx="3"/>
    <rect x="184" y="236" width="12" height="12" rx="3"/>
    <rect x="216" y="236" width="12" height="12" rx="3"/>
  </g>
  <rect x="206" y="206" width="74" height="74" rx="20" fill="hsl(0 0% 7%)" fill-opacity="0.08"/>
  <path d="M223 246C233 236.5 253 236.5 263 246" stroke="hsl(25 95% 53%)" stroke-width="8" stroke-linecap="round"/>
  <path d="M231 233C238.5 226.5 247.5 226.5 255 233" stroke="hsl(25 95% 53%)" stroke-width="8" stroke-linecap="round"/>
  <path d="M239.5 220C242.7 217.5 245.3 217.5 248.5 220" stroke="hsl(25 95% 53%)" stroke-width="8" stroke-linecap="round"/>
  <circle cx="244" cy="254" r="7" fill="hsl(25 95% 53%)"/>
</svg>
